<?xml version="1.0" standalone="no"?>
<!DOCTYPE svg PUBLIC "-//W3C//DTD SVG 20010904//EN"
 "http://www.w3.org/TR/2001/REC-SVG-20010904/DTD/svg10.dtd">
<svg version="1.0" xmlns="http://www.w3.org/2000/svg"
 width="128.000000pt" height="128.000000pt" viewBox="0 0 128.000000 128.000000"
 preserveAspectRatio="xMidYMid meet">
<metadata>
Created by potrace 1.10, written by Peter Selinger 2001-2011
</metadata>
<g transform="translate(0.000000,128.000000) scale(0.100000,-0.100000)"
fill="#000000" stroke="none">
<path d="M99 1237 c-18 -12 -44 -38 -56 -56 l-23 -34 0 -499 c0 -554 -1 -543
66 -594 l37 -29 517 0 517 0 37 29 c67 51 66 41 66 592 0 487 0 497 -21 534
-12 21 -38 47 -59 59 -37 21 -47 21 -542 21 l-505 0 -34 -23z m1071 -5 c22
-12 44 -35 58 -63 l23 -44 -3 -485 c-3 -466 -4 -486 -23 -520 -12 -21 -39 -44
-65 -57 -44 -23 -46 -23 -520 -23 -474 0 -476 0 -520 23 -26 13 -53 36 -65 57
-19 34 -20 54 -23 520 l-3 485 23 44 c43 84 24 81 588 81 460 0 498 -1 530
-18z"/>
<path d="M132 1203 c-63 -31 -62 -22 -62 -558 0 -528 0 -525 56 -555 40 -22
988 -22 1028 0 56 30 56 27 56 555 0 538 1 528 -64 559 -30 14 -90 16 -508 16
-416 0 -477 -2 -506 -17z m992 -85 c14 -20 16 -81 16 -473 0 -392 -2 -453 -16
-473 -15 -21 -21 -22 -189 -22 l-173 0 -6 27 c-3 16 -10 62 -16 103 -5 41 -17
114 -27 162 -20 104 -12 161 25 166 27 4 28 12 2 45 -26 32 -52 117 -41 131 5
6 11 24 15 39 7 31 27 41 103 52 29 4 56 11 59 17 13 20 -8 55 -65 113 -86 86
-114 105 -153 105 -74 0 -187 -145 -137 -176 6 -3 10 1 9 12 -4 36 0 52 20 75
l19 24 -6 -36 c-3 -22 -1 -39 6 -43 20 -13 11 -35 -30 -75 l-42 -40 13 -48 c7
-26 19 -53 27 -59 11 -10 7 -17 -23 -43 l-38 -30 32 -40 c27 -33 33 -50 34
-93 2 -60 -11 -306 -18 -355 l-5 -33 -174 0 c-168 0 -174 1 -189 22 -14 20
-16 81 -16 473 0 392 2 453 16 473 l15 22 469 0 469 0 15 -22z m-441 -50 c12
-6 38 -26 57 -45 26 -25 31 -33 18 -33 -10 0 -18 -4 -18 -10 0 -12 40 -35 60
-35 8 0 16 -8 18 -18 3 -17 -23 -25 -30 -9 -1 4 -18 17 -35 30 -27 18 -33 20
-33 7 0 -9 7 -18 15 -21 23 -9 18 -28 -14 -52 -18 -13 -35 -40 -46 -73 -17
-49 -17 -53 4 -117 20 -58 20 -67 7 -81 -13 -13 -19 -13 -41 -1 -22 12 -30 12
-47 1 -19 -12 -23 -10 -39 10 -23 29 -24 49 -4 75 8 10 15 29 15 41 0 12 8 27
19 32 27 15 35 58 16 88 -14 20 -15 30 -5 53 8 20 9 42 2 73 -10 47 -3 64 33
85 25 14 22 14 48 0z m-96 -248 c-1 -22 -5 -40 -9 -40 -14 0 -20 50 -8 65 18
21 19 20 17 -25z m52 -257 c5 -21 15 -74 21 -118 7 -44 19 -98 28 -119 9 -22
16 -69 16 -105 l1 -66 -56 -3 c-79 -4 -83 3 -70 122 6 52 11 122 11 154 0 67
19 172 31 172 5 0 13 -17 18 -37z m-69 -438 c0 -8 -9 -15 -20 -15 -20 0 -26
11 -13 23 12 13 33 7 33 -8z"/>
</g>
</svg>
